<?xml version="1.0" encoding="utf-8"?>
<!-- Generator: Adobe Illustrator 16.0.4, SVG Export Plug-In . SVG Version: 6.00 Build 0)  -->
<!DOCTYPE svg PUBLIC "-//W3C//DTD SVG 1.1//EN" "http://www.w3.org/Graphics/SVG/1.1/DTD/svg11.dtd">
<svg version="1.1" id="Layer_1" xmlns:sketch="http://www.bohemiancoding.com/sketch/ns"
	 xmlns="http://www.w3.org/2000/svg" xmlns:xlink="http://www.w3.org/1999/xlink" x="0px" y="0px" width="229.493px"
	 height="173.047px" viewBox="0.253 0.265 229.493 173.047" enable-background="new 0.253 0.265 229.493 173.047"
	 xml:space="preserve">
<title>Logo</title>
<desc>Created with Sketch.</desc>
<g id="Page-1" sketch:type="MSPage">
	<g id="Landing-Page-Mobile" transform="translate(-69.000000, -102.000000)" sketch:type="MSArtboardGroup">
		<g id="Hero" transform="translate(20.000000, 102.000000)" sketch:type="MSLayerGroup">
			<g id="Logo" transform="translate(49.000000, 0.000000)">
				<g id="Group-12" sketch:type="MSShapeGroup">
					<path id="Fill-4" fill="#FFFFFF" d="M223.363,42.968l-35.02-35.061c-0.361-0.422-0.725-0.844-1.123-1.244
						c-4.113-4.12-9.584-6.39-15.402-6.398v0.009l-0.006-0.009H58.207c-5.827,0-11.306,2.271-15.426,6.398
						c-0.443,0.443-0.862,0.903-1.262,1.379L6.635,42.97c-0.004,0.006-0.009,0.011-0.013,0.015c-0.52,0.523-1.01,1.065-1.47,1.629
						c-0.013,0.018-0.023,0.033-0.036,0.047c-3.149,3.876-4.862,8.682-4.862,13.756c0,4.321,1.245,8.449,3.562,11.972
						c0.015,0.025,0.03,0.049,0.045,0.073c0.376,0.566,0.78,1.117,1.21,1.649c0.034,0.045,0.067,0.09,0.103,0.133
						c0.433,0.529,0.894,1.037,1.38,1.53c0.028,0.028,0.054,0.061,0.082,0.09c0.032,0.033,0.064,0.061,0.096,0.09l92.744,92.861
						c0.032,0.033,0.061,0.068,0.092,0.102c4.116,4.123,9.597,6.394,15.428,6.394c0.002,0,0.004-0.003,0.004-0.003
						c0.002,0,0.004,0.003,0.004,0.003c5.833,0,11.312-2.271,15.428-6.394c0.06-0.059,0.112-0.119,0.171-0.18l92.76-92.875
						c4.115-4.121,6.383-9.606,6.383-15.445v-0.002C229.746,52.577,227.479,47.091,223.363,42.968"/>
					<path id="Fill-5" fill="#DC002E" d="M162.621,43.951H67.355L52.909,58.415l62.08,62.157l62.082-62.157L162.621,43.951z"/>
					<path id="Fill-6" fill="#EF5A0C" d="M182.107,11.862c-2.846-2.852-6.576-4.278-10.309-4.28V7.58H74.342
						c7.497,8.279,7.515,20.943,0.049,29.244h97.407v-0.002c3.732-0.004,7.463-1.432,10.309-4.283
						C187.812,26.83,187.812,17.572,182.107,11.862"/>
					<path id="Fill-7" fill="#EFA40C" d="M68.522,11.982c-5.693-5.703-14.959-5.703-20.656,0L23.246,36.637
						c5.382,0.288,10.4,2.494,14.237,6.331l10.373,10.388l20.666-20.692C74.218,26.961,74.218,17.686,68.522,11.982"/>
					<path id="Fill-8" fill="#759D0C" d="M32.38,48.169c-5.694-5.703-14.96-5.703-20.655,0c-5.694,5.701-5.694,14.978,0.001,20.682
						l81.498,81.599c0.243-5.247,2.336-10.427,6.333-14.425l10.284-10.301L32.38,48.169z"/>
					<path id="Fill-9" fill="#37589F" d="M192.496,73.863L182.215,63.57l-77.56,77.655c-5.693,5.702-5.693,14.98,0,20.682
						c5.696,5.702,14.962,5.702,20.656,0.002l81.602-81.703C201.461,79.958,196.373,77.743,192.496,73.863"/>
					<path id="Fill-10" fill="#A10D87" d="M218.252,48.169l-24.727-24.757c-0.306,5.15-2.395,10.214-6.315,14.139
						c-3.903,3.908-9.022,6.148-14.506,6.376l24.892,24.923c5.696,5.7,14.96,5.7,20.656,0
						C223.945,63.147,223.945,53.872,218.252,48.169"/>
					<path id="Fill-11" fill="#FFFFFF" d="M164.638,18.101v8.445l7.304,4.222l7.306-4.222v-8.445l-7.306-4.222L164.638,18.101z
						 M207.72,50.065l-7.306,4.222v8.445l7.306,4.222l7.304-4.222v-8.445L207.72,50.065z M107.684,147.338v8.445l7.305,4.223
						l7.304-4.223v-8.445l-7.304-4.223L107.684,147.338z M14.953,54.288v8.445l7.306,4.222l7.306-4.222v-8.445l-7.306-4.222
						L14.953,54.288z M50.723,18.101v8.445l7.306,4.222l7.303-4.222v-8.445l-7.303-4.222L50.723,18.101z"/>
				</g>
			</g>
		</g>
	</g>
</g>
</svg>
