<?xml version="1.0" encoding="UTF-8" standalone="no"?>
<svg width="269px" height="32px" viewBox="0 0 269 32" version="1.1" xmlns="http://www.w3.org/2000/svg" xmlns:xlink="http://www.w3.org/1999/xlink" xmlns:sketch="http://www.bohemiancoding.com/sketch/ns">
    <!-- Generator: Sketch 3.4.4 (17249) - http://www.bohemiancoding.com/sketch -->
    <title>Logo</title>
    <desc>Created with Sketch.</desc>
    <defs></defs>
    <g id="Page-1" stroke="none" stroke-width="1" fill="none" fill-rule="evenodd" sketch:type="MSPage">
        <g id="Landing-Page" sketch:type="MSArtboardGroup" transform="translate(-260.000000, -60.000000)">
            <g id="Header" sketch:type="MSLayerGroup" transform="translate(260.000000, 60.000000)">
                <g id="Logo" sketch:type="MSShapeGroup">
                    <path d="M53.62,22 L55.834,22 L55.834,17.608 L58.606,17.608 L61.702,22 L64.312,22 L60.91,17.23 C62.674,16.726 63.916,15.484 63.916,13.414 L63.916,13.378 C63.916,12.28 63.538,11.344 62.872,10.66 C62.062,9.868 60.82,9.4 59.236,9.4 L53.62,9.4 L53.62,22 Z M55.834,15.646 L55.834,11.416 L59.056,11.416 C60.694,11.416 61.666,12.154 61.666,13.504 L61.666,13.54 C61.666,14.818 60.658,15.646 59.074,15.646 L55.834,15.646 Z M71.8,22.198 C75.094,22.198 77.218,20.308 77.218,16.546 L77.218,9.4 L75.004,9.4 L75.004,16.654 C75.004,18.976 73.798,20.164 71.836,20.164 C69.856,20.164 68.65,18.904 68.65,16.564 L68.65,9.4 L66.436,9.4 L66.436,16.654 C66.436,20.308 68.524,22.198 71.8,22.198 L71.8,22.198 Z M80.26,22 L86.092,22 C88.9,22 90.754,20.794 90.754,18.544 L90.754,18.508 C90.754,16.798 89.728,15.952 88.252,15.448 C89.188,14.962 90.052,14.152 90.052,12.64 L90.052,12.604 C90.052,11.758 89.764,11.074 89.206,10.516 C88.486,9.796 87.352,9.4 85.912,9.4 L80.26,9.4 L80.26,22 Z M82.438,14.71 L82.438,11.362 L85.624,11.362 C87.046,11.362 87.838,11.974 87.838,12.964 L87.838,13 C87.838,14.152 86.884,14.71 85.462,14.71 L82.438,14.71 Z M82.438,20.038 L82.438,16.582 L85.948,16.582 C87.694,16.582 88.54,17.212 88.54,18.274 L88.54,18.31 C88.54,19.444 87.622,20.038 86.11,20.038 L82.438,20.038 Z M96.424,22 L98.656,22 L98.656,16.978 L103.66,9.4 L101.122,9.4 L97.558,14.98 L94.03,9.4 L91.42,9.4 L96.424,17.032 L96.424,22 Z M117.016,22.216 C120.886,22.216 123.622,19.246 123.622,15.7 L123.622,15.664 C123.622,12.118 120.922,9.184 117.052,9.184 C113.182,9.184 110.446,12.154 110.446,15.7 L110.446,15.736 C110.446,19.282 113.146,22.216 117.016,22.216 L117.016,22.216 Z M117.052,20.182 C114.55,20.182 112.768,18.148 112.768,15.7 L112.768,15.664 C112.768,13.216 114.514,11.218 117.016,11.218 C119.518,11.218 121.3,13.252 121.3,15.7 L121.3,15.736 C121.3,18.184 119.554,20.182 117.052,20.182 L117.052,20.182 Z M126.304,22 L132.136,22 C134.944,22 136.798,20.794 136.798,18.544 L136.798,18.508 C136.798,16.798 135.772,15.952 134.296,15.448 C135.232,14.962 136.096,14.152 136.096,12.64 L136.096,12.604 C136.096,11.758 135.808,11.074 135.25,10.516 C134.53,9.796 133.396,9.4 131.956,9.4 L126.304,9.4 L126.304,22 Z M128.482,14.71 L128.482,11.362 L131.668,11.362 C133.09,11.362 133.882,11.974 133.882,12.964 L133.882,13 C133.882,14.152 132.928,14.71 131.506,14.71 L128.482,14.71 Z M128.482,20.038 L128.482,16.582 L131.992,16.582 C133.738,16.582 134.584,17.212 134.584,18.274 L134.584,18.31 C134.584,19.444 133.666,20.038 132.154,20.038 L128.482,20.038 Z M142.09,22.18 C143.35,22.18 144.412,21.802 145.15,21.064 C145.888,20.326 146.32,19.21 146.32,17.716 L146.32,9.4 L144.052,9.4 L144.052,17.662 C144.052,19.336 143.242,20.128 142.054,20.128 C140.992,20.128 140.254,19.588 139.516,18.652 L138.058,20.146 C138.886,21.28 140.146,22.18 142.09,22.18 L142.09,22.18 Z M149.362,22 L158.794,22 L158.794,20.02 L151.576,20.02 L151.576,16.636 L157.894,16.636 L157.894,14.656 L151.576,14.656 L151.576,11.38 L158.704,11.38 L158.704,9.4 L149.362,9.4 L149.362,22 Z M167.272,22.216 C169.63,22.216 171.07,21.352 172.384,19.984 L170.962,18.544 C169.882,19.552 168.892,20.182 167.344,20.182 C164.932,20.182 163.186,18.166 163.186,15.7 L163.186,15.664 C163.186,13.198 164.932,11.218 167.344,11.218 C168.784,11.218 169.864,11.848 170.872,12.784 L172.294,11.146 C171.088,9.994 169.684,9.184 167.362,9.184 C163.546,9.184 160.864,12.118 160.864,15.7 L160.864,15.736 C160.864,19.354 163.6,22.216 167.272,22.216 L167.272,22.216 Z M177.802,22 L180.034,22 L180.034,11.452 L184.03,11.452 L184.03,9.4 L173.806,9.4 L173.806,11.452 L177.802,11.452 L177.802,22 Z M191.77,22 L193.948,22 L193.948,13 L197.89,18.904 L197.962,18.904 L201.94,12.964 L201.94,22 L204.154,22 L204.154,9.4 L201.796,9.4 L197.962,15.358 L194.128,9.4 L191.77,9.4 L191.77,22 Z M206.314,22 L208.582,22 L209.878,18.958 L215.836,18.958 L217.114,22 L219.454,22 L213.91,9.31 L211.858,9.31 L206.314,22 Z M210.688,16.996 L212.848,11.956 L215.026,16.996 L210.688,16.996 Z M221.614,22 L223.828,22 L223.828,17.95 L226.33,17.95 C229.102,17.95 231.37,16.474 231.37,13.648 L231.37,13.612 C231.37,11.074 229.516,9.4 226.582,9.4 L221.614,9.4 L221.614,22 Z M223.828,15.952 L223.828,11.416 L226.402,11.416 C228.058,11.416 229.12,12.19 229.12,13.666 L229.12,13.702 C229.12,15.016 228.076,15.952 226.402,15.952 L223.828,15.952 Z M233.638,22 L235.852,22 L235.852,17.95 L238.354,17.95 C241.126,17.95 243.394,16.474 243.394,13.648 L243.394,13.612 C243.394,11.074 241.54,9.4 238.606,9.4 L233.638,9.4 L233.638,22 Z M235.852,15.952 L235.852,11.416 L238.426,11.416 C240.082,11.416 241.144,12.19 241.144,13.666 L241.144,13.702 C241.144,15.016 240.1,15.952 238.426,15.952 L235.852,15.952 Z M245.662,22 L255.094,22 L255.094,20.02 L247.876,20.02 L247.876,16.636 L254.194,16.636 L254.194,14.656 L247.876,14.656 L247.876,11.38 L255.004,11.38 L255.004,9.4 L245.662,9.4 L245.662,22 Z M257.722,22 L259.936,22 L259.936,17.608 L262.708,17.608 L265.804,22 L268.414,22 L265.012,17.23 C266.776,16.726 268.018,15.484 268.018,13.414 L268.018,13.378 C268.018,12.28 267.64,11.344 266.974,10.66 C266.164,9.868 264.922,9.4 263.338,9.4 L257.722,9.4 L257.722,22 Z M259.936,15.646 L259.936,11.416 L263.158,11.416 C264.796,11.416 265.768,12.154 265.768,13.504 L265.768,13.54 C265.768,14.818 264.76,15.646 263.176,15.646 L259.936,15.646 Z" id="RUBY-OBJECT-MAPPER" fill="#000000"></path>
                    <g id="Group-12">
                        <path d="M30.8345732,7.55517803 L12.146226,7.55517803 L9.31237838,10.3925622 L21.4905615,22.5859436 L33.6688526,10.3925622 L30.8345732,7.55517803 Z" id="Fill-5" fill="#DC002E"></path>
                        <path d="M34.657148,1.26027898 C34.0988842,0.700886106 33.3669454,0.421081594 32.6350066,0.420649296 L32.6350066,0.420216999 L13.5169516,0.420216999 C14.9876293,2.04425037 14.9910834,4.52866371 13.5266662,6.15702006 L32.6350066,6.15702006 L32.6350066,6.15658777 C33.3669454,6.15572317 34.0988842,5.87581058 34.657148,5.31641771 C35.7761584,4.19644314 35.7761584,2.38036163 34.657148,1.26027898" id="Fill-6" fill="#EF5A0C"></path>
                        <path d="M12.375166,1.28394727 C11.2583144,0.165161514 9.44061068,0.165161514 8.32321942,1.28394727 L3.49335181,6.12027478 C4.54910953,6.17679767 5.53362709,6.6095274 6.28629027,7.3622653 L8.32116856,9.4001154 L12.375166,5.34095059 C13.4925572,4.22227291 13.4925572,2.40273302 12.375166,1.28394727" id="Fill-7" fill="#EFA40C"></path>
                        <path d="M5.28536589,8.38270339 C4.16840639,7.26391764 2.35070267,7.26391764 1.23341935,8.38270339 C0.116459843,9.50094877 0.116459843,11.320921 1.23374317,12.4397067 L17.2211166,28.4469241 C17.268718,27.4176239 17.6794283,26.4015088 18.4632861,25.6171051 L20.4807861,23.596655 L5.28536589,8.38270339 Z" id="Fill-8" fill="#759D0C"></path>
                        <path d="M36.6949407,13.4228591 L34.6781963,11.4037059 L19.4633469,26.6371109 C18.3464954,27.7557886 18.3464954,29.5757607 19.4633469,30.6941142 C20.5807382,31.8127919 22.3984419,31.8127919 23.5152935,30.6945465 L39.5228516,14.6670112 C38.4536014,14.6184858 37.4555914,14.1840268 36.6949407,13.4228591" id="Fill-9" fill="#37589F"></path>
                        <path d="M41.7473799,8.38270339 L36.8968958,3.5260579 C36.8369893,4.53633699 36.4271424,5.52964842 35.6580724,6.29967822 C34.8924565,7.06635771 33.888078,7.50578805 32.8124594,7.55053083 L37.6954333,12.4397067 C38.8128246,13.5579521 40.6300965,13.5579521 41.7473799,12.4397067 C42.8643394,11.320921 42.8643394,9.50138107 41.7473799,8.38270339" id="Fill-10" fill="#A10D87"></path>
                        <path d="M31.2300641,2.48411301 L31.2300641,4.14078484 L32.6627471,4.96906672 L34.0959698,4.14078484 L34.0959698,2.48411301 L32.6627471,1.65583113 L31.2300641,2.48411301 Z M39.6814149,8.75458726 L38.2481923,9.58286913 L38.2481923,11.2394329 L39.6814149,12.0677148 L41.1140979,11.2394329 L41.1140979,9.58286913 L39.6814149,8.75458726 Z M20.0574468,27.8365201 L20.0574468,29.4930839 L21.4905615,30.3213657 L22.9233524,29.4930839 L22.9233524,27.8365201 L21.4905615,27.0081302 L20.0574468,27.8365201 Z M1.86670128,9.58286913 L1.86670128,11.2394329 L3.29981602,12.0677148 L4.73293076,11.2394329 L4.73293076,9.58286913 L3.29981602,8.75458726 L1.86670128,9.58286913 Z M8.88364208,2.48411301 L8.88364208,4.14078484 L10.3167568,4.96906672 L11.7494398,4.14078484 L11.7494398,2.48411301 L10.3167568,1.65583113 L8.88364208,2.48411301 Z" id="Fill-11" fill="#FFFFFF"></path>
                    </g>
                </g>
            </g>
        </g>
    </g>
</svg>